<?xml version="1.0" encoding="UTF-8"?>
<svg width="14px" height="14px" viewBox="0 0 14 14" version="1.1" xmlns="http://www.w3.org/2000/svg" xmlns:xlink="http://www.w3.org/1999/xlink">
    <!-- Generator: Sketch 49.1 (51147) - http://www.bohemiancoding.com/sketch -->
    <title>Fill 30</title>
    <desc>Created with Sketch.</desc>
    <defs></defs>
    <g id="002_REEM_Crear/Editar" stroke="none" stroke-width="1" fill="none" fill-rule="evenodd">
        <g id="003_largo_dkt-excedentes" transform="translate(-675.000000, -1299.000000)" fill="#0079C7">
            <g id="Group" transform="translate(648.000000, 1276.000000)">
                <g id="Group-4" transform="translate(27.000000, 23.000000)">
                    <path d="M0.273714699,13.7262853 C0.456191166,13.9087618 0.69442433,14 0.933924692,14 C1.17215786,14 1.41039102,13.9087618 1.59286749,13.7262853 L7,8.31915279 L12.4058653,13.7262853 C12.589609,13.9087618 12.8278421,14 13.0673425,14 C13.3055757,14 13.545076,13.9087618 13.7262853,13.7262853 C14.0912382,13.3613324 14.0912382,12.7708182 13.7262853,12.4058653 L8.32041999,7 L13.7262853,1.59286749 C14.0912382,1.22918175 14.0912382,0.637400434 13.7262853,0.273714699 C13.3613324,-0.0912382332 12.7708182,-0.0912382332 12.4058653,0.273714699 L7,5.67958001 L1.59286749,0.273714699 C1.22918175,-0.0912382332 0.637400434,-0.0912382332 0.273714699,0.273714699 C-0.0912382332,0.637400434 -0.0912382332,1.22918175 0.273714699,1.59286749 L5.68084721,7 L0.273714699,12.4058653 C-0.0912382332,12.7708182 -0.0912382332,13.3613324 0.273714699,13.7262853" id="Fill-30"></path>
                </g>
            </g>
        </g>
    </g>
</svg>