<?xml version="1.0" encoding="UTF-8"?>
<svg width="64px" height="64px" viewBox="0 0 64 64" version="1.1" xmlns="http://www.w3.org/2000/svg" xmlns:xlink="http://www.w3.org/1999/xlink">
    <!-- Generator: Sketch 49.1 (51147) - http://www.bohemiancoding.com/sketch -->
    <title>Group 9</title>
    <desc>Created with Sketch.</desc>
    <defs>
        <circle id="path-1" cx="32" cy="32" r="32"></circle>
    </defs>
    <g id="002_REEM_Crear/Editar" stroke="none" stroke-width="1" fill="none" fill-rule="evenodd">
        <g id="003_largo_dkt-excedentes" transform="translate(-386.000000, -1170.000000)">
            <g id="Group-3" transform="translate(386.000000, 1170.000000)">
                <g id="Group-9">
                    <g id="Oval-3">
                        <use fill="#FFFFFF" fill-rule="evenodd" xlink:href="#path-1"></use>
                        <circle stroke="#0079C7" stroke-width="2" cx="32" cy="32" r="31"></circle>
                    </g>
                    <g id="Beneficiario-VERTICAL-Copy-3" transform="translate(12.000000, 12.000000)" fill="#0079C8">
                        <g id="icono-reembolsos">
                            <g id="Group-2" transform="translate(1.875000, 0.000000)">
                                <path d="M26.25,10.3125 C26.25,15.1350518 22.6309227,18.75 17.8164452,18.75 C12.9934198,18.75 9.375,15.1350518 9.375,10.3125 C9.375,5.48929293 12.9934198,1.875 17.8164452,1.875 C22.6309227,1.875 26.25,5.48929293 26.25,10.3125 Z M17.8166284,20.625 C11.9955425,20.625 7.5,15.6347234 7.5,10.3128164 C7.5,4.99027663 11.9955425,0 17.8166284,0 C23.4668609,0 28.125,4.99027663 28.125,10.3128164 C28.125,15.9669866 23.1334108,20.625 17.8166284,20.625 Z M24.8189298,25.8891287 C24.6262331,25.5598496 24.3531937,25.309524 23.999184,25.1210148 C23.5014363,24.909248 22.8668551,24.7843912 22.1036002,24.7372639 C21.3403453,24.6901366 20.5450788,24.7060497 19.7090134,24.7764346 C18.3513486,24.909248 17.2504036,24.8309065 16.3911141,24.525497 C15.531197,24.2280442 14.7202386,23.9073337 13.9651435,23.5541849 C13.3864255,23.256732 12.7838558,22.9904933 12.1411149,22.7707699 C11.4983739,22.5516585 10.7351189,22.4653605 9.85135008,22.5124878 C8.44535416,22.559003 7.13539279,22.857068 5.92272131,23.413415 C4.70942215,23.969762 3.56830583,24.6589224 2.5,25.465595 L2.5,35 L19.6048191,35 C20.4647362,35 21.3403453,34.9137019 22.2479659,34.7417179 C23.1562141,34.5691218 24.0481428,34.3181842 24.9237518,33.9974737 C25.8075207,33.6681946 26.6511183,33.2924002 27.4627043,32.8609099 C28.2736627,32.4379882 28.9967463,31.9526382 29.6394873,31.4195488 C30.4994044,30.7224319 31.3028306,29.9628866 32.049766,29.1396888 C32.8048611,28.3177151 33.4959332,27.4553466 34.1386742,26.5470749 C34.4041815,26.1547554 34.4443528,25.8028307 34.2673479,25.4894647 C34.0909708,25.1760987 33.7689726,24.9722884 33.319556,24.8780338 C32.7006668,24.7372639 32.154588,24.8859903 31.6800644,25.3327817 C31.1986363,25.7710044 30.7404323,26.178625 30.2822282,26.5470749 C29.7844806,26.9155247 29.2779454,27.2680615 28.7638782,27.588772 C28.2579707,27.9180511 27.7112643,28.2314171 27.1407061,28.5288699 C26.5707756,29.9469734 25.6223561,30.7303884 24.3048626,30.8791148 C22.9792093,31.0278413 21.7094192,31.0749686 20.4967477,31.0045837 C19.5728076,30.9574563 18.6727191,30.9574563 17.8052698,31.0045837 C16.9296608,31.0510989 16.0697436,31.2475647 15.2104542,31.5921449 C14.4465716,31.8975543 13.9086526,31.6704864 13.5872821,30.9188976 C13.2659116,30.1581283 13.4830877,29.6336075 14.245715,29.328198 C15.3228083,28.8893632 16.3672624,28.6304691 17.3872371,28.5447831 C18.4153716,28.4664416 19.5087845,28.458485 20.6737526,28.5288699 C21.4847109,28.5288699 22.3521602,28.4896992 23.2685683,28.4113577 C24.1843486,28.3250596 24.7228953,27.9413087 24.8911127,27.2441918 C25.036106,26.6639751 25.0116266,26.2098392 24.8189298,25.8891287 Z M2.49331411,37.8542829 L2.49331411,40 L0,40 L0,22.6144798 L2.42128921,22.6144798 C3.49477336,21.8992408 4.61710917,21.3121043 5.81209619,20.8461628 C6.99831496,20.3802213 8.31292595,20.0982702 9.76407108,20.0103567 C10.9985152,19.9620043 12.0250266,20.0825713 12.826695,20.3802213 C13.6365054,20.6772433 14.3980905,21.0069189 15.1114501,21.3604567 C15.7045595,21.6738055 16.3220947,21.9475932 16.9634295,22.1887273 C17.6047642,22.4216981 18.4220902,22.4857493 19.4241758,22.3651823 C20.4907706,22.2684774 21.5166557,22.2446152 22.5030836,22.2929676 C23.4888853,22.34132 24.3387791,22.5422651 25.0521388,22.8958029 C25.6214486,23.1607993 26.1024497,23.4980103 26.495142,23.9162274 C26.8878342,24.3344444 27.1446187,24.8487383 27.2648689,25.4679004 C27.5053695,25.3473334 27.7295861,25.2104395 27.9381452,25.04152 L28.5469121,24.5755785 C29.3567225,23.9086919 30.094508,23.3058566 30.7759262,22.759537 C31.4492024,22.2125896 32.4350041,22.0756957 33.7182999,22.3651823 C34.3596346,22.4857493 34.9283182,22.7187201 35.4256031,23.0804213 C35.9228881,23.434587 36.3155804,23.9086919 36.6043063,24.5033639 C36.8128653,25.001331 36.9005478,25.5564419 36.8686063,26.1511138 C36.8366648,26.7457858 36.6118219,27.3241309 36.2109877,27.8949407 C35.5458534,28.9643454 34.7924103,29.9609076 33.9506585,30.8770918 C33.1007647,31.7932759 32.1951298,32.6535722 31.2168438,33.465516 C30.4634007,34.1085404 29.6135069,34.6956769 28.6753043,35.233833 C27.7295861,35.7719892 26.7513001,36.2222318 25.7335569,36.5920964 C24.7076719,36.961961 23.6730185,37.2432842 22.6308496,37.4436014 C21.5886806,37.6527099 20.5784531,37.7494147 19.6007934,37.7494147 L2.49331411,37.7494147 L2.49331411,37.8542829 Z" id="Fill-37"></path>
                                <path d="M16.5464194,8.42462312 C16.8669613,8.60427226 17.3617033,8.79082818 18.0306604,8.98429648 C18.6996174,9.17776479 19.250105,9.37123019 19.6821398,9.56469849 C20.1141745,9.7581668 20.483489,10.0483649 20.7900943,10.4353015 C21.0966996,10.8222381 21.25,11.3335395 21.25,11.9692211 C21.25,12.7799454 20.9735948,13.4386491 20.4207762,13.9453518 C19.8679575,14.4520545 19.1362967,14.7606778 18.2257719,14.8712312 L18.2257719,16.875 L16.6230703,16.875 L16.6230703,14.8712312 C15.9634044,14.7883162 15.3316211,14.6178824 14.7277015,14.3599246 C14.123782,14.1019669 13.5895535,13.7749182 13.125,13.3787688 L14.0030017,11.5961055 C14.4954284,12.0383188 15.0621752,12.3930054 15.703259,12.6601759 C16.3443428,12.9273464 16.9296715,13.0609296 17.4592624,13.0609296 C17.9145249,13.0609296 18.269903,12.9780159 18.5254074,12.8121859 C18.7809118,12.646356 18.9086621,12.4068274 18.9086621,12.093593 C18.9086621,11.844848 18.822721,11.6398668 18.6508362,11.4786432 C18.4789514,11.3174196 18.2606145,11.1861395 17.995819,11.084799 C17.7310235,10.9834585 17.3663545,10.8683005 16.901801,10.7393216 C16.232844,10.5550661 15.6870018,10.3708133 15.2642581,10.1865578 C14.8415145,10.0023023 14.4768454,9.7213168 14.1702401,9.34359296 C13.8636348,8.96586913 13.7103345,8.46378035 13.7103345,7.83731156 C13.7103345,7.08186389 13.9728033,6.45310134 14.4977487,5.95100503 C15.0226942,5.44890871 15.7311276,5.13337585 16.6230703,5.00439698 L16.6230703,3.125 L18.2257719,3.125 L18.2257719,4.99057789 C18.7832361,5.05506732 19.3174646,5.17483162 19.8284734,5.34987437 C20.3394823,5.52491712 20.7947379,5.74602044 21.1942539,6.01319095 L20.3441252,7.82349246 C19.8424074,7.51947084 19.3105017,7.27763909 18.7483919,7.09798995 C18.1862822,6.91834081 17.7054766,6.82851759 17.3059605,6.82851759 C16.9250267,6.82851759 16.6230714,6.89761237 16.4000858,7.03580402 C16.1771001,7.17399567 16.0656089,7.37667371 16.0656089,7.64384422 C16.0656089,7.98471695 16.2258775,8.24497398 16.5464194,8.42462312 Z" id="$"></path>
                            </g>
                        </g>
                    </g>
                </g>
            </g>
        </g>
    </g>
</svg>